<mxfile host="app.diagrams.net" modified="2023-08-03T19:31:37.942Z" agent="Mozilla/5.0 (X11; Linux x86_64) AppleWebKit/537.36 (KHTML, like Gecko) Chrome/114.0.0.0 Safari/537.36" etag="IUkiwRJEK0_tZLhuEGr3" version="21.6.6" type="github">
  <diagram name="Page-1" id="74e2e168-ea6b-b213-b513-2b3c1d86103e">
    <mxGraphModel dx="839" dy="479" grid="1" gridSize="10" guides="1" tooltips="1" connect="1" arrows="1" fold="1" page="1" pageScale="1.5" pageWidth="1100" pageHeight="850" background="none" math="0" shadow="0">
      <root>
        <mxCell id="0" />
        <mxCell id="1" parent="0" />
        <mxCell id="77e6c97f196da883-1" value="Cancer Genomics Workflow" style="swimlane;html=1;childLayout=stackLayout;startSize=20;rounded=0;shadow=0;labelBackgroundColor=none;strokeWidth=1;fontFamily=Verdana;fontSize=8;align=center;whiteSpace=wrap;" parent="1" vertex="1">
          <mxGeometry x="70" y="39" width="960" height="750" as="geometry" />
        </mxCell>
        <mxCell id="77e6c97f196da883-2" value="Patient" style="swimlane;html=1;startSize=20;whiteSpace=wrap;fontFamily=Verdana;" parent="77e6c97f196da883-1" vertex="1">
          <mxGeometry y="20" width="160" height="730" as="geometry" />
        </mxCell>
        <mxCell id="77e6c97f196da883-8" value="Diagnosis of cancer" style="rounded=1;html=1;shadow=0;labelBackgroundColor=none;strokeWidth=1;fontFamily=Verdana;fontSize=10;align=center;whiteSpace=wrap;" parent="77e6c97f196da883-2" vertex="1">
          <mxGeometry x="20" y="65" width="100" height="60" as="geometry" />
        </mxCell>
        <mxCell id="77e6c97f196da883-10" value="" style="rounded=1;html=1;shadow=0;labelBackgroundColor=none;strokeWidth=1;fontFamily=Verdana;fontSize=10;align=center;whiteSpace=wrap;" parent="77e6c97f196da883-2" vertex="1">
          <mxGeometry x="30" y="560" width="100" height="60" as="geometry" />
        </mxCell>
        <mxCell id="77e6c97f196da883-26" style="edgeStyle=orthogonalEdgeStyle;rounded=1;html=1;labelBackgroundColor=none;startArrow=none;startFill=0;startSize=5;endArrow=classicThin;endFill=1;endSize=5;jettySize=auto;orthogonalLoop=1;strokeWidth=1;fontFamily=Verdana;fontSize=10;" parent="77e6c97f196da883-1" source="77e6c97f196da883-8" target="77e6c97f196da883-11" edge="1">
          <mxGeometry relative="1" as="geometry" />
        </mxCell>
        <mxCell id="77e6c97f196da883-39" style="edgeStyle=orthogonalEdgeStyle;rounded=1;html=1;labelBackgroundColor=none;startArrow=none;startFill=0;startSize=5;endArrow=classicThin;endFill=1;endSize=5;jettySize=auto;orthogonalLoop=1;strokeWidth=1;fontFamily=Verdana;fontSize=10;" parent="77e6c97f196da883-1" source="77e6c97f196da883-20" target="77e6c97f196da883-23" edge="1">
          <mxGeometry relative="1" as="geometry" />
        </mxCell>
        <mxCell id="77e6c97f196da883-40" style="edgeStyle=orthogonalEdgeStyle;rounded=1;html=1;labelBackgroundColor=none;startArrow=none;startFill=0;startSize=5;endArrow=classicThin;endFill=1;endSize=5;jettySize=auto;orthogonalLoop=1;strokeWidth=1;fontFamily=Verdana;fontSize=8" parent="77e6c97f196da883-1" source="77e6c97f196da883-23" target="77e6c97f196da883-24" edge="1">
          <mxGeometry relative="1" as="geometry" />
        </mxCell>
        <mxCell id="107ba76e4e335f99-1" style="edgeStyle=orthogonalEdgeStyle;rounded=1;html=1;labelBackgroundColor=none;startArrow=none;startFill=0;startSize=5;endArrow=classicThin;endFill=1;endSize=5;jettySize=auto;orthogonalLoop=1;strokeWidth=1;fontFamily=Verdana;fontSize=10;" parent="77e6c97f196da883-1" source="77e6c97f196da883-17" target="77e6c97f196da883-18" edge="1">
          <mxGeometry relative="1" as="geometry" />
        </mxCell>
        <mxCell id="107ba76e4e335f99-2" style="edgeStyle=orthogonalEdgeStyle;rounded=1;html=1;labelBackgroundColor=none;startArrow=none;startFill=0;startSize=5;endArrow=classicThin;endFill=1;endSize=5;jettySize=auto;orthogonalLoop=1;strokeWidth=1;fontFamily=Verdana;fontSize=10;" parent="77e6c97f196da883-1" source="77e6c97f196da883-22" target="77e6c97f196da883-14" edge="1">
          <mxGeometry relative="1" as="geometry">
            <Array as="points">
              <mxPoint x="660" y="610" />
              <mxPoint x="660" y="550" />
              <mxPoint x="400" y="550" />
            </Array>
          </mxGeometry>
        </mxCell>
        <mxCell id="107ba76e4e335f99-3" style="edgeStyle=orthogonalEdgeStyle;rounded=1;html=1;labelBackgroundColor=none;startArrow=none;startFill=0;startSize=5;endArrow=classicThin;endFill=1;endSize=5;jettySize=auto;orthogonalLoop=1;strokeColor=#000000;strokeWidth=1;fontFamily=Verdana;fontSize=10;fontColor=#000000;" parent="77e6c97f196da883-1" source="77e6c97f196da883-22" target="77e6c97f196da883-19" edge="1">
          <mxGeometry relative="1" as="geometry" />
        </mxCell>
        <mxCell id="107ba76e4e335f99-4" style="edgeStyle=orthogonalEdgeStyle;rounded=1;html=1;labelBackgroundColor=none;startArrow=none;startFill=0;startSize=5;endArrow=classicThin;endFill=1;endSize=5;jettySize=auto;orthogonalLoop=1;strokeWidth=1;fontFamily=Verdana;fontSize=10;" parent="77e6c97f196da883-1" source="77e6c97f196da883-22" target="77e6c97f196da883-10" edge="1">
          <mxGeometry relative="1" as="geometry">
            <Array as="points">
              <mxPoint x="660" y="610" />
              <mxPoint x="660" y="550" />
              <mxPoint x="80" y="550" />
            </Array>
          </mxGeometry>
        </mxCell>
        <mxCell id="107ba76e4e335f99-5" style="edgeStyle=orthogonalEdgeStyle;rounded=1;html=1;labelBackgroundColor=none;startArrow=none;startFill=0;startSize=5;endArrow=classicThin;endFill=1;endSize=5;jettySize=auto;orthogonalLoop=1;strokeWidth=1;fontFamily=Verdana;fontSize=10;" parent="77e6c97f196da883-1" source="77e6c97f196da883-10" target="77e6c97f196da883-19" edge="1">
          <mxGeometry relative="1" as="geometry">
            <Array as="points">
              <mxPoint x="80" y="650" />
              <mxPoint x="490" y="650" />
              <mxPoint x="490" y="610" />
            </Array>
          </mxGeometry>
        </mxCell>
        <mxCell id="107ba76e4e335f99-6" style="edgeStyle=orthogonalEdgeStyle;rounded=1;html=1;labelBackgroundColor=none;startArrow=none;startFill=0;startSize=5;endArrow=classicThin;endFill=1;endSize=5;jettySize=auto;orthogonalLoop=1;strokeWidth=1;fontFamily=Verdana;fontSize=10;" parent="77e6c97f196da883-1" source="77e6c97f196da883-14" target="77e6c97f196da883-19" edge="1">
          <mxGeometry relative="1" as="geometry" />
        </mxCell>
        <mxCell id="77e6c97f196da883-3" value="Surg / Onc / MDT" style="swimlane;html=1;startSize=20;whiteSpace=wrap;fontFamily=Verdana;" parent="77e6c97f196da883-1" vertex="1">
          <mxGeometry x="160" y="20" width="160" height="730" as="geometry" />
        </mxCell>
        <mxCell id="77e6c97f196da883-11" value="Tumour sample taken" style="rounded=1;html=1;shadow=0;labelBackgroundColor=none;strokeWidth=1;fontFamily=Verdana;fontSize=10;align=center;whiteSpace=wrap;" parent="77e6c97f196da883-3" vertex="1">
          <mxGeometry x="30" y="41" width="100" height="60" as="geometry" />
        </mxCell>
        <mxCell id="77e6c97f196da883-4" value="Pathology Lab" style="swimlane;html=1;startSize=20;whiteSpace=wrap;fontFamily=Verdana;" parent="77e6c97f196da883-1" vertex="1">
          <mxGeometry x="320" y="20" width="160" height="730" as="geometry" />
        </mxCell>
        <mxCell id="77e6c97f196da883-12" value="Immunohistochemistry, additional analyses" style="rounded=1;html=1;shadow=0;labelBackgroundColor=none;strokeWidth=1;fontFamily=Verdana;fontSize=10;align=center;whiteSpace=wrap;" parent="77e6c97f196da883-4" vertex="1">
          <mxGeometry x="20" y="291" width="100" height="60" as="geometry" />
        </mxCell>
        <mxCell id="77e6c97f196da883-14" value="" style="rounded=1;html=1;shadow=0;labelBackgroundColor=none;strokeWidth=1;fontFamily=Verdana;fontSize=10;align=center;whiteSpace=wrap;" parent="77e6c97f196da883-4" vertex="1">
          <mxGeometry x="30" y="560" width="100" height="60" as="geometry" />
        </mxCell>
        <mxCell id="77e6c97f196da883-9" value="Histopathology; sections for genomic analysis" style="rounded=1;html=1;shadow=0;labelBackgroundColor=none;strokeWidth=1;fontFamily=Verdana;fontSize=10;align=center;whiteSpace=wrap;" parent="77e6c97f196da883-4" vertex="1">
          <mxGeometry x="30" y="41" width="100" height="60" as="geometry" />
        </mxCell>
        <mxCell id="77e6c97f196da883-28" style="edgeStyle=orthogonalEdgeStyle;rounded=1;html=1;labelBackgroundColor=none;startArrow=none;startFill=0;startSize=5;endArrow=classicThin;endFill=1;endSize=5;jettySize=auto;orthogonalLoop=1;strokeWidth=1;fontFamily=Verdana;fontSize=10;" parent="77e6c97f196da883-4" target="77e6c97f196da883-12" edge="1">
          <mxGeometry relative="1" as="geometry">
            <mxPoint x="80" y="101" as="sourcePoint" />
            <Array as="points">
              <mxPoint x="80" y="131" />
              <mxPoint x="30" y="131" />
              <mxPoint x="30" y="221" />
              <mxPoint x="70" y="221" />
            </Array>
          </mxGeometry>
        </mxCell>
        <mxCell id="77e6c97f196da883-13" value="Suitable for genomic analysis?" style="rhombus;html=1;rounded=0;shadow=0;labelBackgroundColor=none;strokeWidth=1;fontFamily=Verdana;fontSize=10;align=center;whiteSpace=wrap;" parent="77e6c97f196da883-4" vertex="1">
          <mxGeometry x="70" y="151" width="80" height="60" as="geometry" />
        </mxCell>
        <mxCell id="77e6c97f196da883-29" value="No" style="edgeStyle=orthogonalEdgeStyle;rounded=1;html=1;labelBackgroundColor=none;startArrow=classic;startFill=1;endArrow=none;endFill=0;jettySize=auto;orthogonalLoop=1;strokeWidth=1;fontFamily=Verdana;fontSize=10;exitX=0.657;exitY=-0.028;exitDx=0;exitDy=0;exitPerimeter=0;" parent="77e6c97f196da883-4" source="77e6c97f196da883-12" target="77e6c97f196da883-13" edge="1">
          <mxGeometry relative="1" as="geometry">
            <mxPoint x="120" y="241" as="sourcePoint" />
          </mxGeometry>
        </mxCell>
        <mxCell id="77e6c97f196da883-30" style="edgeStyle=orthogonalEdgeStyle;rounded=1;html=1;labelBackgroundColor=none;startArrow=classic;startFill=1;startSize=5;endArrow=none;endFill=0;endSize=5;jettySize=auto;orthogonalLoop=1;strokeWidth=1;fontFamily=Verdana;fontSize=10;" parent="77e6c97f196da883-4" source="77e6c97f196da883-13" target="77e6c97f196da883-9" edge="1">
          <mxGeometry relative="1" as="geometry" />
        </mxCell>
        <mxCell id="77e6c97f196da883-5" value="RMDS Somatic" style="swimlane;html=1;startSize=20;whiteSpace=wrap;fontFamily=Verdana;" parent="77e6c97f196da883-1" vertex="1">
          <mxGeometry x="480" y="20" width="160" height="730" as="geometry" />
        </mxCell>
        <mxCell id="77e6c97f196da883-15" value="Tumour genome panel applied" style="rounded=1;html=1;shadow=0;labelBackgroundColor=none;strokeWidth=1;fontFamily=Verdana;fontSize=10;align=center;whiteSpace=wrap;" parent="77e6c97f196da883-5" vertex="1">
          <mxGeometry x="30" y="60" width="100" height="60" as="geometry" />
        </mxCell>
        <mxCell id="77e6c97f196da883-16" value="" style="rhombus;html=1;rounded=0;shadow=0;labelBackgroundColor=none;strokeWidth=1;fontFamily=Verdana;fontSize=10;align=center;whiteSpace=wrap;" parent="77e6c97f196da883-5" vertex="1">
          <mxGeometry x="40" y="320" width="80" height="60" as="geometry" />
        </mxCell>
        <mxCell id="77e6c97f196da883-17" value="" style="rounded=1;html=1;shadow=0;labelBackgroundColor=none;strokeWidth=1;fontFamily=Verdana;fontSize=10;align=center;whiteSpace=wrap;" parent="77e6c97f196da883-5" vertex="1">
          <mxGeometry x="30" y="400" width="100" height="60" as="geometry" />
        </mxCell>
        <mxCell id="77e6c97f196da883-19" value="" style="rounded=1;html=1;shadow=0;labelBackgroundColor=none;strokeWidth=1;fontFamily=Verdana;fontSize=10;align=center;whiteSpace=wrap;" parent="77e6c97f196da883-5" vertex="1">
          <mxGeometry x="30" y="560" width="100" height="60" as="geometry" />
        </mxCell>
        <mxCell id="77e6c97f196da883-20" value="" style="rhombus;html=1;rounded=0;shadow=0;labelBackgroundColor=none;strokeWidth=1;fontFamily=Verdana;fontSize=10;align=center;whiteSpace=wrap;" parent="77e6c97f196da883-5" vertex="1">
          <mxGeometry x="40" y="640" width="80" height="60" as="geometry" />
        </mxCell>
        <mxCell id="77e6c97f196da883-34" style="edgeStyle=orthogonalEdgeStyle;rounded=1;html=1;labelBackgroundColor=none;startArrow=none;startFill=0;startSize=5;endArrow=classicThin;endFill=1;endSize=5;jettySize=auto;orthogonalLoop=1;strokeColor=#000000;strokeWidth=1;fontFamily=Verdana;fontSize=10;fontColor=#000000;" parent="77e6c97f196da883-5" source="77e6c97f196da883-15" target="77e6c97f196da883-16" edge="1">
          <mxGeometry relative="1" as="geometry" />
        </mxCell>
        <mxCell id="77e6c97f196da883-35" style="edgeStyle=orthogonalEdgeStyle;rounded=1;html=1;labelBackgroundColor=none;startArrow=none;startFill=0;startSize=5;endArrow=classicThin;endFill=1;endSize=5;jettySize=auto;orthogonalLoop=1;strokeWidth=1;fontFamily=Verdana;fontSize=10;" parent="77e6c97f196da883-5" source="77e6c97f196da883-16" target="77e6c97f196da883-17" edge="1">
          <mxGeometry relative="1" as="geometry" />
        </mxCell>
        <mxCell id="77e6c97f196da883-36" style="edgeStyle=orthogonalEdgeStyle;rounded=1;html=1;labelBackgroundColor=none;startArrow=none;startFill=0;startSize=5;endArrow=classicThin;endFill=1;endSize=5;jettySize=auto;orthogonalLoop=1;strokeWidth=1;fontFamily=Verdana;fontSize=10;" parent="77e6c97f196da883-5" source="77e6c97f196da883-19" target="77e6c97f196da883-20" edge="1">
          <mxGeometry relative="1" as="geometry" />
        </mxCell>
        <mxCell id="77e6c97f196da883-6" value="RMDS Germline" style="swimlane;html=1;startSize=20;whiteSpace=wrap;fontFamily=Verdana;" parent="77e6c97f196da883-1" vertex="1">
          <mxGeometry x="640" y="20" width="160" height="730" as="geometry" />
        </mxCell>
        <mxCell id="77e6c97f196da883-18" value="" style="rounded=1;html=1;shadow=0;labelBackgroundColor=none;strokeWidth=1;fontFamily=Verdana;fontSize=10;align=center;whiteSpace=wrap;" parent="77e6c97f196da883-6" vertex="1">
          <mxGeometry x="30" y="400" width="100" height="60" as="geometry" />
        </mxCell>
        <mxCell id="77e6c97f196da883-21" value="" style="rounded=1;html=1;shadow=0;labelBackgroundColor=none;strokeWidth=1;fontFamily=Verdana;fontSize=10;align=center;whiteSpace=wrap;" parent="77e6c97f196da883-6" vertex="1">
          <mxGeometry x="30" y="480" width="100" height="60" as="geometry" />
        </mxCell>
        <mxCell id="77e6c97f196da883-22" value="" style="rounded=1;html=1;shadow=0;labelBackgroundColor=none;strokeWidth=1;fontFamily=Verdana;fontSize=10;align=center;whiteSpace=wrap;" parent="77e6c97f196da883-6" vertex="1">
          <mxGeometry x="30" y="560" width="100" height="60" as="geometry" />
        </mxCell>
        <mxCell id="77e6c97f196da883-23" value="" style="rounded=1;html=1;shadow=0;labelBackgroundColor=none;strokeWidth=1;fontFamily=Verdana;fontSize=10;align=center;whiteSpace=wrap;" parent="77e6c97f196da883-6" vertex="1">
          <mxGeometry x="30" y="640" width="100" height="60" as="geometry" />
        </mxCell>
        <mxCell id="77e6c97f196da883-37" style="edgeStyle=orthogonalEdgeStyle;rounded=1;html=1;labelBackgroundColor=none;startArrow=none;startFill=0;startSize=5;endArrow=classicThin;endFill=1;endSize=5;jettySize=auto;orthogonalLoop=1;strokeWidth=1;fontFamily=Verdana;fontSize=10;" parent="77e6c97f196da883-6" source="77e6c97f196da883-18" target="77e6c97f196da883-21" edge="1">
          <mxGeometry relative="1" as="geometry" />
        </mxCell>
        <mxCell id="77e6c97f196da883-38" style="edgeStyle=orthogonalEdgeStyle;rounded=1;html=1;labelBackgroundColor=none;startArrow=none;startFill=0;startSize=5;endArrow=classicThin;endFill=1;endSize=5;jettySize=auto;orthogonalLoop=1;strokeWidth=1;fontFamily=Verdana;fontSize=10;" parent="77e6c97f196da883-6" source="77e6c97f196da883-21" target="77e6c97f196da883-22" edge="1">
          <mxGeometry relative="1" as="geometry" />
        </mxCell>
        <mxCell id="77e6c97f196da883-7" value="Genetics Team" style="swimlane;html=1;startSize=20;whiteSpace=wrap;fontFamily=Verdana;" parent="77e6c97f196da883-1" vertex="1">
          <mxGeometry x="800" y="20" width="160" height="730" as="geometry" />
        </mxCell>
        <mxCell id="77e6c97f196da883-24" value="" style="rounded=1;whiteSpace=wrap;html=1;shadow=0;labelBackgroundColor=none;strokeWidth=1;fontFamily=Verdana;fontSize=8;align=center;" parent="77e6c97f196da883-7" vertex="1">
          <mxGeometry x="30" y="640" width="100" height="60" as="geometry" />
        </mxCell>
        <mxCell id="y0renvjlpcFaR6Z55MZu-1" style="edgeStyle=orthogonalEdgeStyle;rounded=0;orthogonalLoop=1;jettySize=auto;html=1;exitX=1;exitY=0.5;exitDx=0;exitDy=0;entryX=0;entryY=0.5;entryDx=0;entryDy=0;fontFamily=Verdana;fontSize=10;" edge="1" parent="77e6c97f196da883-1" source="77e6c97f196da883-11" target="77e6c97f196da883-9">
          <mxGeometry relative="1" as="geometry" />
        </mxCell>
        <mxCell id="77e6c97f196da883-33" value="Yes" style="edgeStyle=orthogonalEdgeStyle;rounded=1;html=1;labelBackgroundColor=none;startArrow=none;startFill=0;startSize=5;endArrow=classicThin;endFill=1;endSize=5;jettySize=auto;orthogonalLoop=1;strokeWidth=1;fontFamily=Verdana;fontSize=10;" parent="77e6c97f196da883-1" source="77e6c97f196da883-13" target="77e6c97f196da883-15" edge="1">
          <mxGeometry relative="1" as="geometry" />
        </mxCell>
      </root>
    </mxGraphModel>
  </diagram>
</mxfile>
